<?xml version="1.0" encoding="utf-8"?>
<!-- Generator: Adobe Illustrator 22.1.0, SVG Export Plug-In . SVG Version: 6.00 Build 0)  -->
<svg version="1.1" id="Layer_1" xmlns="http://www.w3.org/2000/svg" xmlns:xlink="http://www.w3.org/1999/xlink" x="0px" y="0px"
	 viewBox="0 0 500 500" style="enable-background:new 0 0 500 500;" xml:space="preserve">
<path d="M252.7,6.9c-1.4-2.5-5.1-2.5-6.6,0C224,45,96.9,265.6,96.9,342.6c0,84.2,68.2,152.6,152.6,152.6
	c84.2,0,152.6-68.2,152.6-152.6C402.1,265.6,275,44.8,252.7,6.9z M249.5,21.4c2.3,0,4.1,1.8,4.1,4.1c0,2.3-1.8,4.1-4.1,4.1
	c-2.3,0-4.1-1.8-4.1-4.1C245.6,23.1,247.2,21.4,249.5,21.4z M348.1,243.8c-36.7,3.4-70.4,16.5-98.6,36.7
	c-28.2-20.2-61.9-33.4-98.6-36.7c27.6-64.6,68.8-141.7,98.6-194.1C279.2,101.9,320.4,179.1,348.1,243.8z M121.2,342.5
	c0-17.2,7.9-44,20.2-75.3c32.9,1.7,63.2,12.1,88.8,29.2c-38.2,35.5-62,85.6-62,141c0,1.4,0,2.8,0.1,4.2
	C139.5,418,121.2,382.4,121.2,342.5z M193.5,457.9c-0.8-6.8-1.3-13.7-1.3-20.6c0-49.9,22.1-94.9,57.4-126.2
	c35.2,31.2,57.4,76.1,57.4,126.2c0,6.9-0.4,13.8-1.3,20.6c-16.9,8.3-36,13-56.1,13C229.5,470.8,210.4,466.1,193.5,457.9z
	 M330.9,441.6c0-1.4,0.1-2.8,0.1-4.2c0-55.4-23.8-105.6-62-141c25.7-16.9,56-27.5,88.8-29.2c12.3,31.3,20.2,58.1,20.2,75.3
	C377.8,382.4,359.6,418,330.9,441.6z"/>
</svg>
